<svg xmlns="http://www.w3.org/2000/svg" width="14" height="14" viewBox="0 0 14 14">
  <path id="Path_3" data-name="Path 3" d="M-.188-12.811a.453.453,0,0,1,.281-.1.335.335,0,0,1,.25.1L6.875-6.16A.3.3,0,0,1,7-5.906a.3.3,0,0,1-.125.253L.344,1a.335.335,0,0,1-.25.1A.453.453,0,0,1-.188,1L-.813.365A.345.345,0,0,1-.906.112.467.467,0,0,1-.813-.173l4.844-4.91H-6.625a.359.359,0,0,1-.266-.111A.369.369,0,0,1-7-5.463V-6.35a.369.369,0,0,1,.109-.269.359.359,0,0,1,.266-.111H4.031l-4.844-4.91a.467.467,0,0,1-.094-.285.345.345,0,0,1,.094-.253Z" transform="translate(7 12.906)" fill="#fff"/>
</svg>
