<svg xmlns="http://www.w3.org/2000/svg" width="32" height="32" viewBox="0 0 32 32">
  <g id="plant-icons-05" transform="translate(0.79 3.001)">
    <rect id="Rectangle_378" data-name="Rectangle 378" width="32" height="32" transform="translate(-0.79 -3.001)" fill="none"/>
    <g id="Group_17" data-name="Group 17" transform="translate(0 0)">
      <path id="Path_23" data-name="Path 23" d="M99.905,130.551a1.123,1.123,0,0,0,1.105-1.105v-5.041a1.105,1.105,0,0,0-2.211,0v5.041A1.094,1.094,0,0,0,99.905,130.551Z" transform="translate(-89.892 -110.583)" fill="#fff"/>
      <path id="Path_24" data-name="Path 24" d="M121.105,130.551a1.123,1.123,0,0,0,1.105-1.105v-5.041a1.105,1.105,0,0,0-2.211,0v5.041A1.094,1.094,0,0,0,121.105,130.551Z" transform="translate(-106.082 -110.583)" fill="#fff"/>
      <path id="Path_25" data-name="Path 25" d="M142.305,130.551a1.123,1.123,0,0,0,1.105-1.105v-5.041a1.105,1.105,0,0,0-2.211,0v5.041A1.081,1.081,0,0,0,142.305,130.551Z" transform="translate(-122.273 -110.583)" fill="#fff"/>
      <path id="Path_26" data-name="Path 26" d="M89.947,82.137H87.831l-5.337-6.913a1.137,1.137,0,0,0-1.646-.174,1.3,1.3,0,0,0-.165,1.741l4.138,5.347H67.4l4.138-5.347a1.28,1.28,0,0,0-.165-1.741,1.121,1.121,0,0,0-1.646.174l-5.337,6.913H62.276a1.245,1.245,0,0,0,0,2.487h1.293l2.139,14.1a1.192,1.192,0,0,0,1.176,1.044H85.316a1.206,1.206,0,0,0,1.176-1.044l2.139-14.1h1.293A1.23,1.23,0,0,0,91.1,83.38,1.2,1.2,0,0,0,89.947,82.137Zm-5.6,15.144H67.895L65.967,84.624H86.3Z" transform="translate(-61.1 -74.768)" fill="#fff"/>
    </g>
  </g>
</svg>
