<svg id="plant-icons-02" xmlns="http://www.w3.org/2000/svg" width="82" height="72" viewBox="0 0 82 72">
  <path id="Path_10" data-name="Path 10" d="M78.6,73.3A15.537,15.537,0,0,0,65.43,80.521C54.666,97.333,79.5,119.055,91.441,129.453c1.009.867,1.85,1.618,2.635,2.311a5.089,5.089,0,0,0,6.223.289c25.115-19.469,35.654-36.107,31.338-49.394-1.962-6.066-6.9-9.359-13.847-9.359-8.353,0-14.071,6.239-16.762,10.11,4.317,8.261,7.288,20.162,3.644,26.979a8.532,8.532,0,0,1-7.68,4.622,7.818,7.818,0,0,1-7.12-4.391C86.732,104.67,88.526,93,94.02,83.41a28.7,28.7,0,0,0-3.98-5.026A15.531,15.531,0,0,0,78.6,73.3Z" transform="translate(-56.66 -67.139)" fill="none"/>
  <path id="Path_11" data-name="Path 11" d="M119.684,119.578a2.04,2.04,0,0,0,1.958,1.267,2.6,2.6,0,0,0,2.534-1.44c1.612-2.822,1.382-9.674-2.073-17.505C118.532,109.558,118.187,116.7,119.684,119.578Z" transform="translate(-81.377 -79.187)" fill="none"/>
  <path id="Path_12" data-name="Path 12" d="M132.94,76.226C130.126,67.681,122.81,62.6,113.411,62.6c-7.654,0-14.689,3.753-20.318,10.8a35.93,35.93,0,0,0-3.321-4.042,21.892,21.892,0,0,0-15.759-6.64A21.5,21.5,0,0,0,55.778,72.762c-13.4,20.728,13.508,44.574,27.972,57.392.675.577,1.294,1.155,1.914,1.674a10.27,10.27,0,0,0,7.2,2.771,11.069,11.069,0,0,0,6.641-2.194c14.633-11.317,24.82-22.172,30.167-32.218C134.178,91.642,135.3,83.559,132.94,76.226ZM85.27,106.019a7.853,7.853,0,0,0,7.148,4.388,8.466,8.466,0,0,0,7.711-4.619c3.658-6.813.675-18.707-3.658-26.964,2.758-3.868,8.5-10.1,16.828-10.1,6.979,0,11.875,3.349,13.9,9.354,4.334,13.28-6.247,29.909-31.461,49.366a5.132,5.132,0,0,1-6.247-.289c-.732-.693-1.632-1.443-2.645-2.31-11.988-10.451-36.921-32.16-26.115-48.9a15.869,15.869,0,0,1,13.282-7.16,15.2,15.2,0,0,1,11.369,5.081,31.015,31.015,0,0,1,4,5.023C83.863,88.467,82.118,100.072,85.27,106.019Zm9.624-3.176a2.579,2.579,0,0,1-2.476,1.443,1.914,1.914,0,0,1-1.914-1.27c-1.463-2.887-1.069-10.047,2.364-17.783C96.188,93.086,96.413,100.015,94.894,102.844Z" transform="translate(-52.146 -62.6)" fill="#b7e5b9"/>
</svg>
