<svg xmlns="http://www.w3.org/2000/svg" width="60" height="72" viewBox="0 0 60 72">
  <g id="plant-icons-03" transform="translate(0 0)">
    <path id="Path_13" data-name="Path 13" d="M150.716,90.276a16.074,16.074,0,0,0,5.708-11.808,14.334,14.334,0,0,0-2.183-.168,16.118,16.118,0,0,0-10.409,3.805,16.687,16.687,0,0,0-4.533,6.212,49.485,49.485,0,0,1,7-5.037,2.526,2.526,0,0,1,1.4-.392,2.67,2.67,0,0,1,2.294,1.287,2.576,2.576,0,0,1-.9,3.638,46.612,46.612,0,0,0-8.227,6.212,15.494,15.494,0,0,0,9.85-3.75Z" transform="translate(-100.772 -68.502)" fill="none"/>
    <path id="Path_14" data-name="Path 14" d="M102.281,95.839A23.1,23.1,0,0,0,80.679,70.6,23.116,23.116,0,0,0,97.692,98.638a61.058,61.058,0,0,0-5.764-8.115c-1.4-1.847-2.966-3.861-4.645-6.1a2.7,2.7,0,0,1,.616-3.75,2.466,2.466,0,0,1,1.959-.448,2.581,2.581,0,0,1,1.735,1.063c1.623,2.239,3.246,4.309,4.533,5.988A58.269,58.269,0,0,1,102.281,95.839Z" transform="translate(-74.667 -65.111)" fill="none"/>
    <path id="Path_15" data-name="Path 15" d="M97.364,146.276A8.266,8.266,0,0,0,91.6,145.6a8.327,8.327,0,0,0,9.682,4.925A8.776,8.776,0,0,0,97.364,146.276Z" transform="translate(-79.767 -98.031)" fill="none"/>
    <path id="Path_16" data-name="Path 16" d="M130.386,68.372l-.165-1.908-1.815-.449a21.9,21.9,0,0,0-5.391-.729,20.931,20.931,0,0,0-13.588,5.05,21.614,21.614,0,0,0-7.151,12.794,28.506,28.506,0,0,0-4.731-10.662A27.974,27.974,0,0,0,74.386,60.8l-1.87.112-.605,1.8a29.223,29.223,0,0,0,3.961,26.037A28.062,28.062,0,0,0,94.74,100.133a11.192,11.192,0,0,1-.44,3.2c-.275,1.01-.5,2.076-.715,3.2l-.055.393v.056a12.817,12.817,0,0,0-3.411-2.581,13.51,13.51,0,0,0-12.432.056l-1.65.9.275,1.852a13.791,13.791,0,0,0,7.206,10.325,13.35,13.35,0,0,0,9.3,1.122A53.122,53.122,0,0,0,94.74,130.94a2.93,2.93,0,0,0,.33.73l.275.505h.165a2.656,2.656,0,0,0,1.705.617,4.167,4.167,0,0,0,.825-.112,2.617,2.617,0,0,0,1.54-1.347,2.581,2.581,0,0,0,.165-2.02,2.385,2.385,0,0,1-.11-.281v-.056a4.626,4.626,0,0,1-.165-.617l-.275-1.122a51.9,51.9,0,0,1-.88-16.5l.055-.281c.055-.281.055-.561.11-.9l.055-.281c.055-.337.11-.673.165-.954v-.112c.22-1.178.44-2.357.77-3.535l.055-.337c.385-1.347.77-2.694,1.265-3.984h.165l.605-1.8a39.564,39.564,0,0,1,4.071-7.127,20.6,20.6,0,0,0,17.328-4.714A21.909,21.909,0,0,0,130.386,68.372Zm-12.377,11.84a2.731,2.731,0,0,0,1.21-1.627,2.7,2.7,0,0,0-2.585-3.311,2.574,2.574,0,0,0-1.375.393,53.509,53.509,0,0,0-6.876,5.05,16.128,16.128,0,0,1,4.456-6.229,15.658,15.658,0,0,1,10.232-3.816,13.817,13.817,0,0,1,2.145.168,16.446,16.446,0,0,1-5.611,11.84h0a16.063,16.063,0,0,1-9.627,3.816A41.491,41.491,0,0,1,118.009,80.212ZM85.443,75.891a2.56,2.56,0,0,0-1.925.449,2.774,2.774,0,0,0-.605,3.76c1.6,2.245,3.136,4.265,4.566,6.117a79.535,79.535,0,0,1,5.666,8.137,22.889,22.889,0,0,1-12.982-8.81,23.8,23.8,0,0,1-3.741-19.3,22.967,22.967,0,0,1,16.943,9.427,23.4,23.4,0,0,1,4.291,15.881,76.5,76.5,0,0,0-6-8.642c-1.265-1.683-2.861-3.76-4.456-6A2.708,2.708,0,0,0,85.443,75.891ZM91.6,113.432a8.148,8.148,0,0,1-9.517-4.938,8.253,8.253,0,0,1,5.666.673A8.736,8.736,0,0,1,91.6,113.432Z" transform="translate(-70.455 -60.792)" fill="#b7e5b9"/>
  </g>
</svg>
