<svg xmlns="http://www.w3.org/2000/svg" width="225.741" height="34.515" viewBox="0 0 225.741 34.515">
  <path id="Path_157" data-name="Path 157" d="M14.362-12.646a.458.458,0,0,0-.51.51v1.024a.458.458,0,0,0,.51.51H14.6c1.753.076,3.62.065,3.62,3.908v1.764c0,1.589-2.13,2.076-3.857,2.076C9.305-2.853,6.989-8.7,6.989-13.96c0-3.809,1.614-9.248,6.452-9.248,3.889,0,5.007,3.042,5.007,5.45l-.024.617-.06.518c-.034.214.116.351.392.351a1.331,1.331,0,0,0,.428-.083l4.354-1.519a.679.679,0,0,0,.59-.667l-.025-.214c-1.108-5.019-5.871-7.118-10.392-7.118-9.769,0-12.52,7.742-12.52,13.4C1.19-5.154,6.061.347,13.486.347A11.076,11.076,0,0,0,22.73-3.81,9.155,9.155,0,0,0,23.887-5.8V-9.5c0-.754.24-1.094.9-1.094h.272a.458.458,0,0,0,.51-.51v-1.024a.458.458,0,0,0-.51-.51ZM34.9-18.011c.007-.051,0-.055-.047-.055h-.08a.3.3,0,0,0-.152.081A17.389,17.389,0,0,1,27.9-15.5c-.332.052-.491.166-.491.448V-13.9c-.01.233.064.4.4.439,1.876.205,2.01,2.09,2.01,3.912v4.273c0,1.848-.8,3.233-2.467,3.233h-.083a.458.458,0,0,0-.51.51V-.51a.458.458,0,0,0,.51.51h9.886a.458.458,0,0,0,.51-.51V-1.53a.458.458,0,0,0-.51-.51H37.1c-1.662,0-2.5-1.385-2.5-3.233v-6.269c.507-1.239,1.855-2.939,3.412-2.939.934,0,1.6.528,1.6,1.759a4.34,4.34,0,0,1-.31,1.706.794.794,0,0,0-.065.3.294.294,0,0,0,.312.329.809.809,0,0,0,.3-.071l3.179-1.312c.824-.34.891-1.134.891-2.16,0-2.319-1.718-3.5-3.841-3.5A6.62,6.62,0,0,0,34.1-13.446Zm24.677,7.619a.41.41,0,0,0,.279-.427,7.065,7.065,0,0,0-7-6.567c-4.005,0-8.087,2.422-8.087,8.729A8.777,8.777,0,0,0,53.9.408a7.161,7.161,0,0,0,6.817-3.967,1.46,1.46,0,0,0,.216-.6.281.281,0,0,0-.145-.26c-1.085-.635-1.143-.664-1.349-.664a.378.378,0,0,0-.292.149A5.429,5.429,0,0,1,54.82-2.418a5.51,5.51,0,0,1-5.109-3.66ZM49.3-8.2a8.918,8.918,0,0,1-.318-2.594c0-2.208,1.181-3.9,3.05-3.9,1.563,0,2.731,1.575,2.731,3.736Zm27.585-2.188a.41.41,0,0,0,.279-.427,7.065,7.065,0,0,0-7-6.567c-4.005,0-8.087,2.422-8.087,8.729A8.777,8.777,0,0,0,71.205.408a7.161,7.161,0,0,0,6.817-3.967,1.459,1.459,0,0,0,.216-.6.281.281,0,0,0-.145-.26c-1.085-.635-1.143-.664-1.349-.664a.378.378,0,0,0-.292.149,5.429,5.429,0,0,1-4.324,2.512,5.51,5.51,0,0,1-5.109-3.66ZM66.608-8.2A8.918,8.918,0,0,1,66.29-10.8c0-2.208,1.181-3.9,3.05-3.9,1.563,0,2.731,1.575,2.731,3.736Zm34.01,6.163c-1.662,0-2.5-1.385-2.5-3.233v-5.609c-.008-3.251-.919-6.564-5.78-6.564-3.115,0-4.94,2.383-5.88,3.9l.6-4.463c.007-.051,0-.055-.047-.055h-.08a.3.3,0,0,0-.152.081A17.389,17.389,0,0,1,80.056-15.5c-.332.052-.491.166-.491.448V-13.9c-.01.233.064.4.4.439,1.876.205,2.01,2.09,2.01,3.912v4.273c0,1.848-.8,3.233-2.467,3.233h-.083a.458.458,0,0,0-.51.51V-.51a.458.458,0,0,0,.51.51H89.31a.458.458,0,0,0,.51-.51V-1.53a.456.456,0,0,0-.5-.51h-.068c-1.662,0-2.5-1.385-2.5-3.233v-6.269a5.045,5.045,0,0,1,4.135-2.9c2.609,0,2.452,2.2,2.452,4.047v5.119c.033,1.848-.5,3.233-1.787,3.233a.462.462,0,0,0-.525.51V-.51a.458.458,0,0,0,.51.51h9.225a.458.458,0,0,0,.51-.51V-1.53a.458.458,0,0,0-.51-.51Zm32.317,0c-1.662,0-2.5-1.385-2.5-3.233V-18.01c-.033-.051-.036-.055-.08-.055h-.08a1.941,1.941,0,0,0-.288.081A24.966,24.966,0,0,1,123.23-17h-4.943v-2.228c.015-3.383,1.218-6.117,4.344-6.117,2.062,0,3.426,1.149,3.426,3.252a4.343,4.343,0,0,1-.547,1.973.837.837,0,0,0-.1.374c0,.181.079.322.25.322l.084-.01,3.566-.8a.99.99,0,0,0,.853-.648,3.754,3.754,0,0,0,.294-1.418c0-2.86-2.54-4.9-7.328-4.9-6.981,0-9.556,5.889-9.556,9.922l0,.283h-2.521a.458.458,0,0,0-.51.51v1.02a.458.458,0,0,0,.51.51c2.465,0,2.467,2.041,2.467,3.863v5.825c.033,1.848-.8,3.233-2.467,3.233a.458.458,0,0,0-.51.51V-.51a.458.458,0,0,0,.51.51H120.8a.458.458,0,0,0,.51-.51V-1.53a.458.458,0,0,0-.51-.51c-1.662,0-2.5-1.385-2.5-3.233v-9.245h4.913c2.347,0,2.575,1.742,2.575,3.258v5.987c.033,1.848-.8,3.233-2.467,3.233h-.058c-.315,0-.512.162-.512.461l0,.049V-.51a.509.509,0,0,0,.568.51h9.624a.511.511,0,0,0,.578-.51V-1.53a.458.458,0,0,0-.51-.51Zm23.613,0c-1.662,0-2.5-1.385-2.5-3.233v-5.609c-.008-3.251-.919-6.564-5.78-6.564-3.115,0-4.94,2.383-5.88,3.9l.6-4.463c.007-.051,0-.055-.047-.055h-.08a.3.3,0,0,0-.152.081,17.389,17.389,0,0,1-6.726,2.486c-.332.052-.491.166-.491.448V-13.9c-.01.233.064.4.4.439,1.876.205,2.01,2.09,2.01,3.912v4.273c0,1.848-.8,3.233-2.467,3.233h-.083a.458.458,0,0,0-.51.51V-.51a.458.458,0,0,0,.51.51h9.886a.458.458,0,0,0,.51-.51V-1.53a.456.456,0,0,0-.5-.51h-.068c-1.662,0-2.5-1.385-2.5-3.233v-6.269a5.046,5.046,0,0,1,4.135-2.9c2.609,0,2.452,2.2,2.452,4.047v5.119c.033,1.848-.5,3.233-1.787,3.233a.462.462,0,0,0-.525.51V-.51a.458.458,0,0,0,.51.51h9.225a.458.458,0,0,0,.51-.51V-1.53a.458.458,0,0,0-.51-.51Zm18.065-15.984-2.347.556a.443.443,0,0,0-.376.5l0,.1c.047.675-.269.865-.588.865a.978.978,0,0,1-.334-.063l-.146-.062a8.439,8.439,0,0,0-4.712-1.289c-4.639,0-7.454,2.912-7.462,6.5A6.132,6.132,0,0,0,160.666-6.3a3.337,3.337,0,0,0-2.111,3.158,3.463,3.463,0,0,0,1.722,3.093,3.616,3.616,0,0,0-2.041,3.209c0,2.856,3.567,4.148,7.718,4.148,4.067,0,8.481-1.326,8.481-5.032,0-4.077-3.928-4.835-7.907-5.039-4.164-.214-4.957-.723-4.957-1.768a1.037,1.037,0,0,1,.435-.831,8.674,8.674,0,0,0,4.109.946c4.674,0,7.5-2.912,7.5-6.5a6.237,6.237,0,0,0-.823-3.142c1.522-.01,2.583-1.295,2.426-3.492-.023-.325-.2-.5-.449-.5Zm-8.5,2.608c2.6,0,3.092,2.532,3.092,4.5s-.492,4.5-3.092,4.5c-2.564,0-3.313-2.533-3.313-4.5s.75-4.5,3.313-4.5Zm-.136,20.38c-3.407,0-4.359-1.224-4.359-2.278a2.139,2.139,0,0,1,.966-1.818,17.867,17.867,0,0,0,3.178.424c3.411.17,5.419.476,5.419,1.938C171.182,4.284,169.342,4.964,165.979,4.964Zm24.807-15.355a.41.41,0,0,0,.279-.427,7.065,7.065,0,0,0-7-6.567c-4.005,0-8.087,2.422-8.087,8.729A8.777,8.777,0,0,0,185.105.408a7.161,7.161,0,0,0,6.817-3.967,1.46,1.46,0,0,0,.216-.6.281.281,0,0,0-.145-.26c-1.085-.635-1.143-.664-1.349-.664a.378.378,0,0,0-.292.149,5.429,5.429,0,0,1-4.324,2.512,5.51,5.51,0,0,1-5.109-3.66ZM180.508-8.2a8.918,8.918,0,0,1-.318-2.594c0-2.208,1.181-3.9,3.05-3.9,1.563,0,2.731,1.575,2.731,3.736Zm20.451-9.808c.007-.051,0-.055-.047-.055h-.08a.3.3,0,0,0-.152.081,17.389,17.389,0,0,1-6.726,2.486c-.332.052-.491.166-.491.448V-13.9c-.01.233.064.4.4.439,1.876.205,2.01,2.09,2.01,3.912v4.273c0,1.848-.8,3.233-2.467,3.233h-.083a.458.458,0,0,0-.51.51V-.51a.458.458,0,0,0,.51.51h9.886a.458.458,0,0,0,.51-.51V-1.53a.458.458,0,0,0-.51-.51h-.058c-1.662,0-2.5-1.385-2.5-3.233v-6.269c.507-1.239,1.855-2.939,3.412-2.939.934,0,1.6.528,1.6,1.759a4.34,4.34,0,0,1-.31,1.706.794.794,0,0,0-.065.3.294.294,0,0,0,.312.329.809.809,0,0,0,.3-.071l3.179-1.312c.824-.34.891-1.134.891-2.16,0-2.319-1.718-3.5-3.841-3.5a6.62,6.62,0,0,0-5.983,3.991Zm24.492,5.872c.2-.1.272-.217.272-.359a.969.969,0,0,0-.086-.338l-1.7-4.32a.572.572,0,0,0-.587-.4h-.886c-.29,0-.429.127-.429.355a.834.834,0,0,0,.036.227c.106.368.137.714-.047.714a.316.316,0,0,1-.151-.052,9.908,9.908,0,0,0-4.5-1.1c-3.562,0-5.832,1.946-5.832,4.649,0,2.231.941,4.233,6.491,5.886,2.3.686,5.152,1.312,5.152,3.059,0,1.3-1.176,1.939-3.271,1.939-2.776,0-5.513-1.239-7.7-4.58a.472.472,0,0,0-.4-.276.588.588,0,0,0-.292.09l-1.052.61a.462.462,0,0,0-.272.4.619.619,0,0,0,.085.3L213.2.14a.62.62,0,0,0,.6.34h1.219c.271.024.385-.073.385-.266a.949.949,0,0,0-.052-.278c-.1-.308-.039-.508.174-.508a.711.711,0,0,1,.293.083,9.085,9.085,0,0,0,3.946.88c4.435,0,7.162-2.339,7.162-5.513,0-4.129-4.524-5.134-7.68-5.942-1.861-.477-3.787-1.07-3.787-2.558,0-1.288,1.172-1.734,2.379-1.734,1.636,0,4.037.92,6.09,3.481a.562.562,0,0,0,.427.264.581.581,0,0,0,.27-.078Z" transform="translate(-1.19 27.205)" fill="#fff"/>
</svg>
