<svg id="plant-icons-01" xmlns="http://www.w3.org/2000/svg" width="77" height="72" viewBox="0 0 77 72">
  <path id="Path_4" data-name="Path 4" d="M174.989,90.929a7.919,7.919,0,0,0,2.648-3.68c-4.443-.269-7.853.763-10.187,3.1a9.707,9.707,0,0,0-1.75,2.468Q171.758,93.419,174.989,90.929Z" transform="translate(-108.796 -68.162)" fill="none"/>
  <path id="Path_5" data-name="Path 5" d="M136.964,62.729a4.491,4.491,0,0,0-1.212-1.571c-1.705-1.526-5.43-3.1-13.553-2.378C123.816,60.934,127.72,63.985,136.964,62.729Z" transform="translate(-84.889 -52.449)" fill="none"/>
  <path id="Path_6" data-name="Path 6" d="M174.683,58.335a11,11,0,0,0,3.994-4.847c-4.936-.539-8.706.18-11.129,2.2a8.211,8.211,0,0,0-2.648,4.129C168.849,60.489,172.17,59.995,174.683,58.335Z" transform="translate(-108.355 -49.536)" fill="none"/>
  <path id="Path_7" data-name="Path 7" d="M47.9,143.259v20.778l17.861-8.257L57.189,139.4Z" transform="translate(-44.041 -96.794)" fill="none"/>
  <path id="Path_8" data-name="Path 8" d="M115.364,135.206c-1.934-2.693-5.893-2.423-6.342-2.378a.908.908,0,0,0-.495.135L97.6,137.225a1.876,1.876,0,1,0,1.349,3.5l10.661-4.174c.765-.045,2.249.135,2.7.808.36.539.27,1.571-.225,2.917-2.024.853-4.138,1.885-6.163,2.827-10.346,4.936-21.006,10.052-29.418,2.648-.045-.045-.135-.09-.18-.135a16.29,16.29,0,0,0-13.584-1.571L57.7,134.4a43.582,43.582,0,0,1,7.332-2.737c4.273-1.122,10.121-1.8,13.809,1.571a1.878,1.878,0,0,0,.72.4l10.976,3.411a2.125,2.125,0,0,1,.315,1.616,2.361,2.361,0,0,1-1.349,1.077l-12.235-2.827a1.867,1.867,0,1,0-.855,3.635l12.775,2.962a1.248,1.248,0,0,0,.4.045,2.639,2.639,0,0,0,.585-.09c2.879-.9,3.913-2.513,4.273-3.68.855-2.693-.99-5.161-1.215-5.43a2.04,2.04,0,0,0-.945-.673L81,130.18c-7.782-6.552-20.467-1.346-25.1.9l-.99-1.885a1.851,1.851,0,0,0-2.384-.853l-12.055,5.026a1.856,1.856,0,0,0-1.17,1.75v24.951a1.824,1.824,0,0,0,.855,1.571,2.143,2.143,0,0,0,1.035.314,1.768,1.768,0,0,0,.81-.18L64.355,151.5a2.032,2.032,0,0,0,.99-1.122,1.715,1.715,0,0,0-.135-1.481l-.765-1.436a12.156,12.156,0,0,1,9.581,1.212,17.8,17.8,0,0,0,12.19,4.622c7.062,0,14.439-3.5,21.231-6.776,2.339-1.122,4.543-2.154,6.7-3.1a1.85,1.85,0,0,0,.99-.942C116.624,139.469,116.669,137,115.364,135.206ZM43.168,157.2V136.418l9.311-3.859,8.592,16.38Z" transform="translate(-39.3 -89.952)" fill="#b7e5b9"/>
  <path id="Path_9" data-name="Path 9" d="M115.764,55.891c3.725,2.917,9.02,3.9,15.752,3.052V74.559c-6.462-.449-12.072,4.308-12.3,4.533a1.9,1.9,0,0,0-.18,2.648,1.862,1.862,0,0,0,2.648.224c.045-.045,5.52-4.667,10.815-3.455,3.1.718,5.7,3.366,7.674,7.853a1.843,1.843,0,0,0,1.705,1.122,1.586,1.586,0,0,0,.763-.179,1.9,1.9,0,0,0,.987-2.468c-2.109-4.757-4.892-7.9-8.3-9.379V73.213a22.981,22.981,0,0,0,3.007.18,14.6,14.6,0,0,0,9.289-2.827,11.872,11.872,0,0,0,4.443-8.167,1.872,1.872,0,0,0-1.616-1.975c-7.4-1.077-12.251.942-15.168,3.68V58.942a23.771,23.771,0,0,0,3.455.269,15.5,15.5,0,0,0,8.616-2.378,15.168,15.168,0,0,0,6.283-9.2L154,45.749l-1.885-.314c-7.18-1.257-12.655-.314-16.335,2.693a11.11,11.11,0,0,0-2.693,3.231,2.572,2.572,0,0,0-.494-.494c-3.59-3.321-10.052-4.353-19.3-3.1a1.927,1.927,0,0,0-1.3.808,1.764,1.764,0,0,0-.269,1.481A10.66,10.66,0,0,0,115.764,55.891ZM137.709,67.02c2.334-2.334,5.744-3.366,10.187-3.1a7.918,7.918,0,0,1-2.648,3.68c-2.154,1.66-5.3,2.289-9.289,1.84A9.561,9.561,0,0,1,137.709,67.02Zm.494-15.931c2.423-2.019,6.193-2.782,11.129-2.2a11.242,11.242,0,0,1-3.994,4.847c-2.513,1.66-5.789,2.154-9.783,1.481A7.915,7.915,0,0,1,138.2,51.089Zm-8.257,2.468a5.109,5.109,0,0,1,1.212,1.571c-9.245,1.257-13.149-1.75-14.764-3.949C124.515,50.461,128.24,52.031,129.945,53.557Z" transform="translate(-79.01 -44.893)" fill="#b7e5b9"/>
</svg>
