<svg xmlns="http://www.w3.org/2000/svg" width="32" height="32" viewBox="0 0 32 32">
  <g id="plant-icons-04" transform="translate(-77.298 -67)">
    <rect id="Rectangle_377" data-name="Rectangle 377" width="32" height="32" transform="translate(77.298 67)" fill="none"/>
    <path id="Path_27" data-name="Path 27" d="M107.409,80.682a5.342,5.342,0,1,1,5.409-5.341A5.369,5.369,0,0,1,107.409,80.682Zm0-8.637a3.3,3.3,0,1,0,3.337,3.3A3.319,3.319,0,0,0,107.409,72.046Z" transform="translate(-13.909)" fill="#fff"/>
    <path id="Path_28" data-name="Path 28" d="M101.97,135.182H85.03A1.022,1.022,0,0,1,84,134.16v-2.727a9.5,9.5,0,0,1,19,0v2.727A1.022,1.022,0,0,1,101.97,135.182Zm-15.91-2.046h14.88v-1.7a7.44,7.44,0,0,0-14.88,0Z" transform="translate(0 -40.181)" fill="#fff"/>
  </g>
</svg>
